<?xml version="1.0" standalone="no"?>
<!DOCTYPE svg PUBLIC "-//W3C//DTD SVG 20010904//EN"
 "http://www.w3.org/TR/2001/REC-SVG-20010904/DTD/svg10.dtd">
<svg version="1.0" xmlns="http://www.w3.org/2000/svg"
 width="350.000000pt" height="239.000000pt" viewBox="0 0 350.000000 239.000000"
 preserveAspectRatio="xMidYMid meet">

<g transform="translate(0.000000,239.000000) scale(0.100000,-0.100000)"
fill="#000000" stroke="none">
<path d="M2677 2258 c-95 -91 -119 -277 -32 -261 56 11 135 146 135 231 0 70
-47 83 -103 30z"/>
<path d="M2475 2262 c-39 -24 -94 -87 -111 -128 -8 -19 -14 -55 -14 -82 0
-111 74 -113 157 -4 52 68 71 182 37 216 -20 21 -32 20 -69 -2z"/>
<path d="M2893 2238 c-67 -71 -104 -198 -68 -238 13 -15 21 -17 38 -8 67 31
136 196 111 262 -10 26 -48 18 -81 -16z"/>
<path d="M2246 2219 c-43 -12 -85 -56 -117 -124 -37 -76 -38 -127 -4 -161 32
-32 57 -26 111 30 41 42 84 134 84 181 0 33 -16 71 -32 77 -7 3 -26 1 -42 -3z"/>
<path d="M3077 2161 c-50 -56 -68 -95 -74 -162 -5 -49 -3 -60 11 -65 35 -13
110 89 136 184 23 87 -14 108 -73 43z"/>
<path d="M1949 2125 c-15 -8 -41 -36 -58 -61 -52 -79 -39 -195 22 -202 38 -5
72 20 108 76 24 38 29 56 29 108 0 89 -34 115 -101 79z"/>
<path d="M3225 2039 c-41 -45 -70 -103 -80 -161 -17 -92 67 -37 128 83 54 108
24 157 -48 78z"/>
<path d="M1673 2035 c-56 -39 -83 -139 -52 -197 16 -31 28 -38 65 -38 70 0
125 122 93 207 -5 15 -16 31 -22 35 -20 13 -61 9 -84 -7z"/>
<path d="M1395 1946 c-54 -54 -51 -156 7 -199 56 -42 118 17 118 111 0 97 -68
145 -125 88z"/>
<path d="M3330 1871 c-61 -64 -102 -168 -72 -178 18 -7 105 85 132 136 43 86
6 112 -60 42z"/>
<path d="M1120 1858 c-22 -37 -25 -64 -9 -105 24 -64 87 -94 122 -58 20 20 30
69 23 110 -16 86 -97 117 -136 53z"/>
<path d="M859 1803 c-15 -39 -5 -89 26 -129 68 -89 147 -19 101 90 -28 67
-107 91 -127 39z"/>
<path d="M126 1801 c-19 -29 75 -201 109 -201 38 0 -1 119 -58 178 -32 33 -42
38 -51 23z"/>
<path d="M610 1780 c-22 -42 36 -164 85 -176 35 -9 45 2 45 47 0 95 -97 191
-130 129z"/>
<path d="M367 1783 c-32 -32 56 -193 105 -193 29 0 23 66 -12 127 -35 60 -72
87 -93 66z"/>
<path d="M2461 1739 c-32 -44 -47 -110 -37 -161 7 -34 32 -68 51 -68 21 0 63
54 79 103 19 56 20 92 5 136 -9 25 -16 31 -40 31 -22 0 -36 -9 -58 -41z"/>
<path d="M2672 1767 c-45 -53 -65 -167 -40 -222 32 -70 108 36 108 150 0 34
-5 66 -12 73 -16 16 -43 15 -56 -1z"/>
<path d="M2284 1751 c-48 -29 -88 -119 -80 -177 9 -67 21 -84 60 -84 60 0 110
80 111 176 0 47 -5 67 -19 83 -23 26 -33 26 -72 2z"/>
<path d="M2824 1694 c-41 -85 -34 -215 11 -198 19 8 53 91 61 151 15 114 -26
141 -72 47z"/>
<path d="M2070 1717 c-13 -7 -38 -32 -54 -57 -23 -34 -30 -55 -31 -95 -1 -129
93 -156 152 -45 21 38 24 56 21 114 -3 53 -8 71 -23 82 -23 17 -33 17 -65 1z"/>
<path d="M2998 1673 c-28 -32 -46 -77 -53 -134 -7 -56 6 -106 24 -94 39 24 86
245 52 245 -4 0 -15 -8 -23 -17z"/>
<path d="M1822 1654 c-29 -20 -62 -85 -62 -124 0 -46 26 -98 55 -112 56 -25
118 46 118 136 0 98 -50 143 -111 100z"/>
<path d="M1567 1580 c-51 -60 -43 -149 15 -193 80 -60 158 91 95 184 -32 48
-75 51 -110 9z"/>
<path d="M3100 1568 c-36 -59 -54 -206 -25 -202 12 2 62 146 67 193 4 46 -16
51 -42 9z"/>
<path d="M1338 1550 c-23 -14 -41 -75 -34 -115 9 -49 51 -95 85 -95 62 0 91
92 53 167 -27 52 -63 67 -104 43z"/>
<path d="M1090 1500 c-51 -51 0 -190 71 -190 72 0 78 126 8 185 -37 30 -53 31
-79 5z"/>
<path d="M126 1491 c-13 -20 31 -119 72 -163 74 -80 68 26 -7 130 -30 40 -53
52 -65 33z"/>
<path d="M845 1473 c-26 -25 -15 -96 22 -141 24 -30 37 -37 64 -37 33 0 34 1
37 44 4 54 -12 94 -50 126 -35 29 -50 31 -73 8z"/>
<path d="M364 1465 c-19 -49 51 -180 96 -180 16 0 26 6 28 19 6 28 -27 104
-60 142 -32 36 -55 43 -64 19z"/>
<path d="M595 1450 c-20 -63 80 -203 121 -169 30 25 4 119 -46 169 -26 26 -67
26 -75 0z"/>
<path d="M2392 1293 c-23 -9 -45 -66 -44 -119 0 -60 21 -107 58 -130 24 -16
26 -16 45 3 41 41 34 188 -12 234 -20 20 -25 21 -47 12z"/>
<path d="M2553 1273 c-37 -56 -15 -195 35 -222 33 -18 46 3 50 82 3 59 0 84
-16 121 -24 53 -44 58 -69 19z"/>
<path d="M2186 1268 c-55 -49 -57 -155 -5 -222 31 -40 78 -33 101 14 26 51 23
135 -5 185 -27 48 -55 55 -91 23z"/>
<path d="M2719 1268 c-21 -38 -15 -137 10 -185 12 -24 28 -43 36 -43 19 0 29
57 22 133 -8 102 -40 146 -68 95z"/>
<path d="M1975 1237 c-32 -32 -35 -40 -35 -92 0 -110 73 -182 129 -126 63 63
39 224 -37 246 -17 5 -30 -1 -57 -28z"/>
<path d="M2872 1253 c-19 -38 -22 -90 -7 -148 30 -112 60 -108 59 8 -1 76 -18
157 -34 157 -5 0 -13 -8 -18 -17z"/>
<path d="M1764 1226 c-29 -21 -46 -92 -33 -139 15 -57 54 -97 94 -97 18 0 38
7 45 15 16 19 24 93 16 137 -13 69 -79 114 -122 84z"/>
<path d="M2993 1215 c-9 -25 2 -168 16 -193 23 -44 34 -13 28 82 -3 50 -8 99
-12 109 -9 21 -24 22 -32 2z"/>
<path d="M1532 1187 c-59 -63 4 -217 89 -217 25 0 49 42 49 85 0 116 -81 193
-138 132z"/>
<path d="M123 1185 c-14 -38 76 -185 113 -185 35 0 -4 113 -59 173 -29 31 -45
34 -54 12z"/>
<path d="M1306 1175 c-28 -28 -30 -80 -6 -131 21 -42 68 -84 97 -84 25 0 43
32 43 77 0 101 -84 188 -134 138z"/>
<path d="M367 1173 c-24 -24 23 -146 70 -183 57 -45 68 30 17 117 -31 54 -70
83 -87 66z"/>
<path d="M602 1158 c-30 -30 7 -131 64 -174 28 -22 37 -24 49 -14 8 7 15 22
15 34 0 34 -45 121 -75 144 -32 25 -37 26 -53 10z"/>
<path d="M1065 1155 c-3 -8 -7 -22 -10 -31 -17 -52 57 -164 109 -164 61 0 58
110 -4 172 -40 40 -87 51 -95 23z"/>
<path d="M824 1135 c-13 -54 59 -175 105 -175 41 0 52 44 25 108 -34 83 -115
125 -130 67z"/>
<path d="M130 860 c0 -55 74 -180 107 -180 32 0 0 107 -53 177 -32 42 -54 43
-54 3z"/>
<path d="M2560 865 c-33 -39 25 -201 81 -231 23 -12 29 -11 39 1 26 31 -13
170 -62 222 -25 27 -41 29 -58 8z"/>
<path d="M2723 864 c-18 -49 40 -186 94 -222 20 -13 23 -12 29 1 10 28 -16
123 -49 178 -33 56 -62 73 -74 43z"/>
<path d="M2880 833 c0 -54 24 -113 64 -160 36 -43 46 -41 46 5 0 54 -74 202
-101 202 -5 0 -9 -21 -9 -47z"/>
<path d="M2380 851 c-16 -31 -11 -112 9 -156 17 -38 72 -95 91 -95 19 0 40 33
40 64 0 54 -29 134 -61 171 -35 39 -63 45 -79 16z"/>
<path d="M3016 861 c-12 -19 23 -118 57 -162 68 -89 78 -44 16 71 -47 87 -63
107 -73 91z"/>
<path d="M2190 840 c-24 -24 -28 -112 -6 -163 18 -45 73 -97 101 -97 73 0 70
166 -4 248 -34 37 -62 41 -91 12z"/>
<path d="M360 823 c0 -62 90 -196 119 -179 16 11 13 56 -8 101 -41 90 -111
139 -111 78z"/>
<path d="M1990 822 c-55 -44 -22 -197 52 -242 41 -25 53 -25 78 0 58 58 -13
260 -91 260 -9 0 -27 -8 -39 -18z"/>
<path d="M595 810 c-26 -42 70 -200 121 -200 41 0 15 113 -40 173 -33 36 -68
48 -81 27z"/>
<path d="M1766 788 c-38 -53 -3 -172 63 -215 42 -28 55 -29 82 -2 18 18 21 29
16 76 -6 58 -45 136 -77 153 -31 17 -68 12 -84 -12z"/>
<path d="M837 793 c-16 -15 -5 -71 22 -119 69 -120 165 -109 111 13 -35 81
-104 135 -133 106z"/>
<path d="M1552 784 c-50 -35 -16 -162 57 -211 44 -30 67 -29 87 3 26 39 4 125
-45 175 -44 45 -69 54 -99 33z"/>
<path d="M1070 770 c-31 -58 65 -205 129 -198 53 6 36 113 -30 179 -44 44 -82
51 -99 19z"/>
<path d="M1310 775 c-21 -26 -5 -113 28 -154 68 -84 132 -88 132 -8 -1 106
-113 219 -160 162z"/>
<path d="M133 575 c-14 -37 67 -215 98 -215 29 0 -9 150 -52 204 -23 30 -37
33 -46 11z"/>
<path d="M367 513 c-33 -32 65 -213 115 -213 18 0 20 5 15 36 -8 48 -42 117
-77 154 -28 30 -41 36 -53 23z"/>
<path d="M3160 507 c0 -24 50 -86 93 -115 69 -48 135 -52 109 -6 -13 24 -165
134 -184 134 -10 0 -18 -6 -18 -13z"/>
<path d="M3000 485 c0 -37 62 -129 111 -165 71 -51 103 -33 57 33 -32 49 -110
127 -140 143 -27 14 -28 14 -28 -11z"/>
<path d="M2833 484 c-13 -35 26 -121 79 -173 55 -54 84 -69 100 -53 24 24 -87
197 -148 230 -21 11 -25 10 -31 -4z"/>
<path d="M2654 465 c-8 -21 13 -103 37 -142 49 -78 138 -128 147 -82 7 36 -41
133 -92 186 -53 54 -82 66 -92 38z"/>
<path d="M605 449 c-20 -31 54 -168 109 -205 76 -49 53 83 -29 175 -37 40 -67
52 -80 30z"/>
<path d="M2480 450 c-23 -14 -16 -89 13 -146 46 -91 117 -143 153 -113 22 18
11 78 -27 150 -47 87 -103 132 -139 109z"/>
<path d="M2276 408 c-34 -48 -5 -148 63 -219 103 -107 168 -33 102 117 -10 23
-36 60 -56 83 -44 48 -84 55 -109 19z"/>
<path d="M854 396 c-24 -62 119 -251 162 -215 20 16 17 47 -10 105 -43 92
-134 158 -152 110z"/>
<path d="M2072 387 c-50 -60 15 -229 104 -272 33 -15 37 -15 61 0 23 16 25 22
21 73 -5 68 -40 143 -86 183 -35 31 -82 38 -100 16z"/>
<path d="M1114 368 c-4 -6 -7 -27 -6 -46 4 -97 164 -245 187 -173 26 81 -141
284 -181 219z"/>
<path d="M1844 345 c-32 -49 4 -154 75 -218 66 -59 121 -48 121 24 0 134 -142
276 -196 194z"/>
<path d="M1373 353 c-19 -7 -15 -82 6 -128 25 -56 103 -125 140 -125 36 0 41
14 30 73 -13 72 -44 121 -101 164 -31 22 -50 27 -75 16z"/>
<path d="M1617 342 c-58 -64 50 -252 145 -252 39 0 51 27 37 89 -24 114 -136
214 -182 163z"/>
</g>
</svg>
