<?xml version="1.0" standalone="no"?>
<!DOCTYPE svg PUBLIC "-//W3C//DTD SVG 20010904//EN"
 "http://www.w3.org/TR/2001/REC-SVG-20010904/DTD/svg10.dtd">
<svg version="1.0" xmlns="http://www.w3.org/2000/svg"
 width="224.000000pt" height="188.000000pt" viewBox="0 0 224.000000 188.000000"
 preserveAspectRatio="xMidYMid meet">

<g transform="translate(0.000000,188.000000) scale(0.100000,-0.100000)"
fill="#000000" stroke="none">
<path d="M315 1868 c-9 -25 -235 -1017 -235 -1033 0 -12 12 -15 53 -15 l53 0
-93 -408 c-51 -224 -93 -408 -93 -410 0 -1 136 -1 302 0 l303 3 81 345 c45
190 84 338 87 330 3 -8 16 -72 28 -143 l22 -127 222 0 222 0 88 135 c48 75 89
134 91 132 4 -3 -136 -607 -152 -660 -5 -16 13 -17 312 -15 l317 3 93 395 c51
217 93 401 94 408 0 8 -17 12 -55 12 -30 0 -55 3 -55 8 0 5 203 896 235 1030
l5 22 -335 0 -336 0 -216 -327 c-119 -181 -219 -331 -223 -336 -3 -4 -37 143
-75 328 l-68 335 -334 0 c-258 0 -335 -3 -338 -12z"/>
</g>
</svg>
