<?xml version="1.0" standalone="no"?>
<!DOCTYPE svg PUBLIC "-//W3C//DTD SVG 20010904//EN"
 "http://www.w3.org/TR/2001/REC-SVG-20010904/DTD/svg10.dtd">
<svg version="1.0" xmlns="http://www.w3.org/2000/svg"
 width="396.000000pt" height="56.000000pt" viewBox="0 0 396.000000 56.000000"
 preserveAspectRatio="xMidYMid meet">

<g transform="translate(0.000000,56.000000) scale(0.100000,-0.100000)"
fill="#000000" stroke="none">
<path d="M576 543 c-3 -10 -8 -35 -12 -55 l-6 -38 70 0 c39 0 73 4 76 9 4 5 9
30 12 55 l7 46 -71 0 c-59 0 -72 -3 -76 -17z"/>
<path d="M785 548 c-7 -21 -55 -236 -55 -247 0 -6 6 -11 14 -11 11 0 10 -14
-5 -77 -28 -119 -30 -114 49 -111 l67 3 22 90 c20 81 21 91 7 102 -9 6 -13 16
-9 22 9 16 35 13 35 -4 0 -7 7 -18 16 -23 14 -8 14 -17 -4 -93 -11 -46 -18
-87 -16 -91 3 -5 34 -8 69 -8 l64 0 10 38 c25 89 35 156 23 160 -7 2 -12 25
-12 56 0 38 -5 57 -18 69 -25 23 -75 31 -112 19 -35 -13 -34 -14 -15 58 8 30
15 56 15 58 0 1 -32 2 -70 2 -48 0 -72 -4 -75 -12z"/>
<path d="M1537 553 c-3 -5 -17 -63 -33 -131 -24 -104 -26 -125 -14 -132 12 -8
11 -22 -7 -95 -24 -99 -25 -98 63 -93 l59 3 21 93 c18 79 19 94 7 100 -12 7
-10 25 11 122 15 62 26 119 26 126 0 10 -17 14 -64 14 -36 0 -67 -3 -69 -7z"/>
<path d="M2545 550 c-88 -23 -150 -77 -196 -173 -33 -70 -36 -87 -14 -87 11 0
15 -12 15 -44 0 -56 32 -104 90 -134 39 -20 55 -23 115 -18 39 2 93 12 121 20
l51 16 16 78 c20 93 20 92 4 92 -9 0 -12 10 -9 30 l4 31 -108 -3 -108 -3 -7
-27 c-5 -21 -3 -30 8 -37 10 -5 14 -15 10 -25 -5 -13 0 -16 29 -16 31 0 35 -3
32 -22 -7 -54 -108 -24 -108 32 0 16 -7 33 -16 38 -30 17 18 97 77 127 55 29
149 13 149 -26 0 -5 11 -9 25 -9 20 0 26 7 34 38 22 81 21 84 -39 109 -56 23
-119 28 -175 13z"/>
<path d="M3801 510 c-6 -28 -11 -53 -11 -55 0 -3 33 -5 74 -5 l74 0 6 38 c4
20 9 45 12 55 5 15 -3 17 -69 17 l-75 0 -11 -50z"/>
<path d="M47 429 c-21 -91 -25 -124 -16 -130 9 -5 7 -29 -9 -96 -11 -48 -17
-92 -13 -96 5 -4 37 -7 72 -5 l63 3 8 40 c5 22 14 58 20 80 l11 40 6 -30 c6
-28 9 -30 57 -33 49 -3 53 -1 73 30 24 39 25 33 6 -47 -22 -90 -25 -86 57 -83
l72 3 16 65 c29 114 31 130 16 130 -11 0 -9 21 10 103 13 56 26 112 29 125 5
21 3 22 -73 22 l-79 0 -28 -42 c-15 -24 -39 -59 -53 -78 l-26 -34 -16 74 -16
75 -80 3 -80 3 -27 -122z"/>
<path d="M1173 439 c-26 -7 -34 -17 -43 -47 -18 -66 -10 -76 40 -47 34 20 100
20 100 0 0 -10 -11 -15 -32 -16 -33 -1 -115 -27 -89 -28 8 -1 6 -7 -8 -19 -27
-21 -50 -85 -43 -118 9 -46 41 -57 175 -58 l122 -1 16 60 c29 108 32 135 14
135 -12 0 -14 8 -9 39 8 49 -8 79 -51 97 -38 16 -143 17 -192 3z m107 -223
c-7 -18 -16 -26 -28 -24 -26 5 -21 41 8 55 29 15 35 6 20 -31z"/>
<path d="M3256 435 c-43 -15 -91 -57 -112 -97 -17 -34 -17 -38 0 -38 11 0 12
-8 6 -37 -9 -38 -4 -85 12 -115 15 -29 64 -48 125 -48 105 1 174 51 209 154
27 79 32 51 9 -49 -12 -52 -20 -97 -17 -100 3 -3 34 -5 68 -5 58 0 64 2 69 23
39 159 42 177 29 177 -23 0 -16 20 11 32 19 9 28 9 37 0 25 -25 45 -13 57 32
19 78 25 74 -108 75 l-119 1 -17 -70 c-9 -39 -21 -70 -25 -70 -4 0 -10 18 -13
41 -3 22 -14 50 -24 61 -41 46 -122 60 -197 33z m78 -110 c4 -14 11 -25 16
-25 15 0 12 -37 -6 -71 -24 -47 -49 -35 -48 23 0 32 -4 48 -13 50 -11 2 -10 8
2 26 21 29 41 28 49 -3z"/>
<path d="M1674 394 c3 -26 6 -57 6 -69 0 -14 7 -25 18 -27 14 -4 20 -19 25
-59 11 -90 8 -118 -16 -157 -55 -87 -57 -82 25 -82 l73 0 87 147 c54 92 83
150 76 154 -7 4 2 28 26 67 20 33 36 62 36 66 0 3 -31 6 -70 6 l-70 0 -32 -62
-33 -63 -3 40 c-5 86 -4 85 -84 85 l-71 0 7 -46z"/>
<path d="M2795 378 c5 -42 13 -68 25 -78 23 -20 42 -162 25 -188 -7 -9 -24
-38 -39 -65 l-28 -47 74 0 74 0 86 147 c55 93 83 150 76 154 -7 5 2 28 26 67
20 33 36 62 36 66 0 3 -31 6 -70 6 l-70 0 -32 -62 -33 -63 -3 40 c-5 86 -4 85
-83 85 l-71 0 7 -62z"/>
<path d="M546 398 c-20 -67 -23 -99 -10 -106 13 -7 12 -20 -4 -95 -10 -48 -16
-89 -14 -92 8 -8 130 -6 135 3 3 4 13 47 23 95 15 74 16 90 5 97 -11 6 -12 17
-2 53 6 25 11 48 11 51 0 3 -32 6 -70 6 -48 0 -72 -4 -74 -12z"/>
<path d="M3769 354 c-10 -46 -10 -57 1 -64 11 -7 11 -21 -3 -84 -25 -111 -27
-106 47 -106 36 0 67 4 70 8 3 5 14 48 25 96 16 75 17 87 4 95 -12 6 -13 15
-4 47 18 64 18 64 -58 64 l-70 0 -12 -56z"/>
</g>
</svg>
