<?xml version="1.0" standalone="no"?>
<!DOCTYPE svg PUBLIC "-//W3C//DTD SVG 20010904//EN"
 "http://www.w3.org/TR/2001/REC-SVG-20010904/DTD/svg10.dtd">
<svg version="1.0" xmlns="http://www.w3.org/2000/svg"
 width="429.000000pt" height="90.000000pt" viewBox="0 0 429.000000 90.000000"
 preserveAspectRatio="xMidYMid meet">

<g transform="translate(0.000000,90.000000) scale(0.100000,-0.100000)"
fill="#ffffff" stroke="none">
<path d="M883 788 c-26 -29 -35 -59 -23 -78 8 -13 13 -11 34 10 13 14 25 34
26 45 5 51 -5 58 -37 23z"/>
<path d="M956 788 c-17 -24 -22 -78 -8 -78 16 0 42 36 48 68 5 25 3 32 -9 32
-9 0 -23 -10 -31 -22z"/>
<path d="M1026 778 c-18 -25 -22 -68 -6 -68 12 0 37 39 42 64 5 28 -18 31 -36
4z"/>
<path d="M797 773 c-26 -30 -32 -72 -12 -80 24 -9 55 30 55 68 0 33 -19 38
-43 12z"/>
<path d="M1085 750 c-28 -53 -13 -83 19 -38 18 25 21 68 6 68 -5 0 -16 -13
-25 -30z"/>
<path d="M706 741 c-23 -26 -18 -66 9 -66 23 0 48 45 39 69 -8 21 -27 20 -48
-3z"/>
<path d="M1133 705 c-9 -19 -13 -38 -9 -42 10 -10 45 37 46 60 0 28 -19 19
-37 -18z"/>
<path d="M622 718 c-7 -7 -12 -25 -12 -40 0 -21 5 -28 20 -28 24 0 43 34 35
60 -7 23 -25 26 -43 8z"/>
<path d="M525 681 c-8 -26 4 -51 25 -51 10 0 21 7 24 16 10 25 -3 54 -24 54
-10 0 -21 -8 -25 -19z"/>
<path d="M444 666 c-10 -26 1 -51 21 -51 23 0 32 30 15 50 -16 19 -29 19 -36
1z"/>
<path d="M1178 663 c-19 -23 -30 -53 -18 -53 9 0 50 53 50 64 0 12 -17 6 -32
-11z"/>
<path d="M356 644 c-6 -17 19 -54 36 -54 12 0 10 44 -4 58 -16 16 -25 15 -32
-4z"/>
<path d="M1605 651 c-97 -24 -175 -113 -175 -201 0 -28 2 -30 40 -30 36 0 40
2 40 25 0 14 9 43 20 64 28 55 85 81 178 81 l72 0 0 35 0 35 -72 -1 c-40 -1
-86 -4 -103 -8z"/>
<path d="M1910 625 l0 -35 165 0 165 0 0 35 0 35 -165 0 -165 0 0 -35z"/>
<path d="M2400 440 l0 -220 150 0 150 0 0 35 0 35 -115 0 -115 0 0 185 0 185
-35 0 -35 0 0 -220z"/>
<path d="M2946 645 c-83 -29 -139 -113 -139 -210 0 -91 41 -159 120 -199 50
-25 63 -21 63 19 0 19 -4 35 -10 35 -20 0 -79 63 -90 96 -25 74 12 160 83 199
13 7 18 19 15 42 l-3 31 -39 -13z"/>
<path d="M3060 619 c0 -24 5 -39 13 -39 17 -1 50 -30 72 -63 12 -18 18 -47 18
-83 0 -62 -19 -95 -71 -129 -25 -16 -31 -27 -32 -54 0 -31 2 -33 28 -26 87 21
152 110 152 208 0 109 -56 190 -151 217 -28 8 -29 8 -29 -31z"/>
<path d="M3310 627 l0 -35 121 -4 c113 -3 122 -5 140 -27 27 -34 24 -75 -7
-100 -23 -18 -41 -21 -140 -21 l-114 0 0 -110 0 -110 40 0 40 0 0 75 0 75 48
0 47 0 53 -75 c53 -74 53 -75 98 -75 l46 0 -38 53 c-21 28 -47 64 -58 79 -11
15 -18 29 -15 30 2 2 17 11 34 20 87 49 83 186 -8 235 -24 13 -63 18 -159 21
l-128 4 0 -35z"/>
<path d="M3940 652 c0 -8 66 -195 131 -370 l23 -62 43 0 42 0 -30 83 c-16 45
-53 144 -81 220 l-50 137 -39 0 c-22 0 -39 -4 -39 -8z"/>
<path d="M110 639 c0 -8 9 -25 20 -39 19 -24 20 -24 20 -4 0 11 -9 29 -20 39
-15 14 -20 15 -20 4z"/>
<path d="M276 641 c-8 -13 19 -61 34 -61 16 0 12 26 -8 51 -13 16 -21 19 -26
10z"/>
<path d="M190 629 c0 -17 20 -49 30 -49 14 0 12 34 -2 48 -15 15 -28 15 -28 1z"/>
<path d="M826 621 c-17 -19 -22 -66 -7 -76 16 -9 41 25 41 55 0 37 -13 45 -34
21z"/>
<path d="M892 628 c-13 -13 -16 -64 -4 -72 16 -10 34 12 35 44 2 35 -11 48
-31 28z"/>
<path d="M956 625 c-3 -9 -6 -31 -6 -48 0 -28 2 -30 15 -16 19 19 25 70 9 76
-6 2 -14 -3 -18 -12z"/>
<path d="M1009 603 c-5 -14 -7 -34 -4 -42 6 -14 8 -13 21 3 16 23 19 66 4 66
-6 0 -15 -12 -21 -27z"/>
<path d="M744 595 c-17 -27 -11 -65 11 -65 18 0 35 31 35 64 0 33 -24 34 -46
1z"/>
<path d="M1062 587 c-15 -35 -15 -57 -2 -57 12 0 23 42 17 67 -3 15 -6 13 -15
-10z"/>
<path d="M664 575 c-8 -32 1 -55 21 -55 18 0 37 43 29 65 -10 25 -43 18 -50
-10z"/>
<path d="M585 560 c-8 -25 11 -61 29 -54 33 13 29 74 -4 74 -10 0 -21 -9 -25
-20z"/>
<path d="M1100 556 c-12 -34 -13 -46 -1 -46 11 0 26 59 17 67 -3 3 -10 -6 -16
-21z"/>
<path d="M512 553 c-10 -19 1 -63 16 -63 22 0 35 30 24 55 -14 29 -28 32 -40
8z"/>
<path d="M110 539 c0 -9 9 -27 20 -40 15 -19 19 -20 20 -8 0 9 -9 27 -20 40
-15 19 -19 20 -20 8z"/>
<path d="M430 527 c0 -22 16 -47 31 -47 13 0 19 32 9 51 -15 27 -40 24 -40 -4z"/>
<path d="M3888 539 c-3 -7 -33 -81 -67 -163 -34 -82 -61 -151 -61 -153 0 -2
18 -3 41 -1 l41 3 44 110 c24 60 44 116 43 125 -1 29 -35 95 -41 79z"/>
<path d="M190 528 c0 -9 9 -26 20 -39 19 -23 19 -23 20 -3 0 11 -9 29 -20 39
-17 15 -20 16 -20 3z"/>
<path d="M270 520 c0 -19 29 -55 37 -46 3 3 3 16 -1 29 -7 31 -36 44 -36 17z"/>
<path d="M350 526 c0 -25 12 -46 26 -46 15 0 18 18 8 44 -8 20 -34 21 -34 2z"/>
<path d="M802 471 c-8 -5 -12 -22 -10 -42 2 -26 8 -34 23 -34 14 0 21 8 23 25
4 32 -18 63 -36 51z"/>
<path d="M860 461 c-13 -25 0 -71 19 -71 22 0 27 48 7 75 -13 18 -14 18 -26
-4z"/>
<path d="M922 444 c2 -20 9 -39 16 -42 10 -3 12 6 10 34 -2 20 -9 39 -16 42
-10 3 -12 -6 -10 -34z"/>
<path d="M976 462 c-4 -10 -1 -32 6 -48 l12 -29 4 39 c4 43 -12 71 -22 38z"/>
<path d="M1914 466 c-3 -8 -4 -25 -2 -38 3 -23 4 -23 148 -23 l145 0 0 35 0
35 -143 3 c-117 2 -143 0 -148 -12z"/>
<path d="M727 463 c-12 -12 -7 -60 8 -73 19 -16 35 -4 35 25 0 45 -22 70 -43
48z"/>
<path d="M1026 454 c-3 -12 -2 -32 3 -45 8 -21 10 -22 16 -7 4 10 3 30 -2 45
-9 26 -10 27 -17 7z"/>
<path d="M657 453 c-11 -10 -8 -58 4 -70 18 -18 39 -4 39 26 0 36 -25 62 -43
44z"/>
<path d="M1071 428 c-1 -21 4 -38 9 -38 11 0 11 14 0 50 -7 22 -8 21 -9 -12z"/>
<path d="M110 439 c0 -9 9 -27 20 -40 15 -19 19 -20 20 -8 0 9 -9 27 -20 40
-15 19 -19 20 -20 8z"/>
<path d="M576 434 c-7 -18 18 -64 35 -64 16 0 22 30 11 56 -13 28 -37 32 -46
8z"/>
<path d="M1696 412 c-13 -85 -69 -122 -186 -122 l-80 0 0 -35 0 -35 84 0 c93
0 135 11 185 48 37 27 81 111 81 155 0 25 -3 27 -39 27 -37 0 -39 -2 -45 -38z"/>
<path d="M190 428 c0 -9 9 -26 20 -39 19 -23 19 -23 20 -3 0 11 -9 29 -20 39
-17 15 -20 16 -20 3z"/>
<path d="M345 430 c-8 -12 20 -60 35 -60 17 0 11 36 -9 54 -13 12 -21 14 -26
6z"/>
<path d="M424 426 c-7 -19 13 -56 31 -56 17 0 19 23 5 51 -13 22 -28 25 -36 5z"/>
<path d="M500 417 c0 -25 17 -47 37 -47 16 0 17 42 1 58 -19 19 -38 14 -38
-11z"/>
<path d="M270 412 c0 -19 18 -42 32 -42 12 0 9 35 -4 48 -17 17 -28 15 -28 -6z"/>
<path d="M110 335 c0 -4 8 -20 17 -38 13 -24 18 -28 21 -15 4 20 -14 58 -28
58 -6 0 -10 -2 -10 -5z"/>
<path d="M864 326 c-8 -21 13 -67 34 -74 19 -6 14 43 -7 69 -19 23 -20 23 -27
5z"/>
<path d="M925 330 c-10 -16 15 -70 32 -70 11 0 13 7 8 28 -8 35 -30 58 -40 42z"/>
<path d="M980 324 c0 -12 9 -32 20 -45 19 -24 19 -24 20 -3 0 12 -9 32 -20 45
-19 24 -19 24 -20 3z"/>
<path d="M1030 321 c0 -21 39 -73 40 -53 0 15 -28 72 -35 72 -3 0 -5 -9 -5
-19z"/>
<path d="M190 316 c0 -8 9 -24 20 -37 17 -21 19 -22 20 -6 0 23 -18 57 -30 57
-6 0 -10 -6 -10 -14z"/>
<path d="M796 314 c-8 -22 15 -68 37 -72 13 -3 17 3 17 23 0 52 -39 88 -54 49z"/>
<path d="M1080 319 c0 -17 20 -49 31 -49 5 0 3 14 -6 30 -16 31 -25 38 -25 19z"/>
<path d="M270 302 c0 -21 33 -56 43 -46 8 9 -21 64 -33 64 -6 0 -10 -8 -10
-18z"/>
<path d="M660 306 c-15 -19 7 -69 33 -74 22 -5 24 50 1 72 -19 19 -19 19 -34
2z"/>
<path d="M730 291 c0 -16 7 -37 16 -46 15 -14 19 -15 31 -2 13 13 13 19 1 43
-19 41 -48 44 -48 5z"/>
<path d="M350 292 c0 -22 36 -59 47 -48 9 9 -18 58 -34 64 -8 2 -13 -5 -13
-16z"/>
<path d="M430 287 c0 -25 17 -47 37 -47 19 0 16 34 -5 53 -25 23 -32 21 -32
-6z"/>
<path d="M505 300 c-11 -17 25 -69 48 -70 15 0 6 47 -11 63 -21 20 -28 21 -37
7z"/>
<path d="M580 287 c0 -32 36 -65 53 -48 9 9 8 18 -3 39 -21 36 -50 42 -50 9z"/>
<path d="M1910 255 l0 -35 165 0 165 0 0 35 0 35 -165 0 -165 0 0 -35z"/>
<path d="M115 218 c8 -27 35 -58 35 -41 0 19 -22 63 -32 63 -5 0 -6 -10 -3
-22z"/>
<path d="M190 209 c0 -18 28 -59 40 -59 13 0 0 37 -21 56 -15 14 -19 14 -19 3z"/>
<path d="M1130 211 c0 -12 51 -53 58 -46 7 6 -17 34 -40 46 -11 6 -18 6 -18 0z"/>
<path d="M1020 193 c0 -17 37 -63 52 -63 13 0 -5 40 -28 61 -23 22 -24 22 -24
2z"/>
<path d="M1086 180 c20 -32 44 -47 44 -26 0 13 -41 56 -54 56 -4 0 1 -13 10
-30z"/>
<path d="M270 186 c0 -8 11 -28 25 -43 22 -25 24 -26 25 -8 0 23 -26 65 -41
65 -5 0 -9 -6 -9 -14z"/>
<path d="M895 190 c-8 -13 16 -61 37 -74 27 -17 34 2 14 39 -20 36 -41 51 -51
35z"/>
<path d="M960 182 c0 -24 28 -62 46 -62 18 0 10 35 -14 63 -19 22 -32 22 -32
-1z"/>
<path d="M827 178 c-7 -21 13 -68 33 -78 27 -15 30 -13 30 18 0 49 -50 96 -63
60z"/>
<path d="M357 161 c3 -11 15 -30 26 -42 20 -21 22 -21 25 -6 2 10 -4 29 -12
42 -20 30 -46 34 -39 6z"/>
<path d="M757 167 c-8 -20 24 -81 44 -85 25 -5 30 22 11 59 -18 36 -46 49 -55
26z"/>
<path d="M440 152 c0 -17 38 -62 53 -62 13 0 7 35 -9 58 -18 27 -44 29 -44 4z"/>
<path d="M684 156 c-9 -23 24 -76 46 -76 28 0 26 41 -3 68 -27 26 -36 27 -43
8z"/>
<path d="M526 138 c14 -48 64 -79 64 -40 0 27 -29 62 -51 62 -16 0 -19 -4 -13
-22z"/>
<path d="M606 152 c-2 -4 2 -22 11 -40 17 -35 53 -45 53 -14 0 38 -48 79 -64
54z"/>
</g>
</svg>
