<?xml version="1.0" standalone="no"?>
<!DOCTYPE svg PUBLIC "-//W3C//DTD SVG 20010904//EN"
 "http://www.w3.org/TR/2001/REC-SVG-20010904/DTD/svg10.dtd">
<svg version="1.0" xmlns="http://www.w3.org/2000/svg"
 width="396.000000pt" height="56.000000pt" viewBox="0 0 396.000000 56.000000"
 preserveAspectRatio="xMidYMid meet">

<g transform="translate(0.000000,56.000000) scale(0.100000,-0.100000)"
fill="#000000" stroke="none">
<path d="M229 553 c-15 -2 -51 -18 -80 -36 -84 -51 -171 -196 -134 -223 9 -7
15 -27 15 -50 0 -110 111 -172 258 -145 105 19 115 28 135 113 21 88 21 88 2
88 -11 0 -13 8 -8 30 l6 31 -108 -3 -109 -3 -7 -27 c-5 -21 -3 -30 8 -37 10
-5 14 -15 10 -25 -5 -13 0 -16 29 -16 31 0 35 -3 32 -22 -3 -19 -9 -23 -40
-22 -47 2 -68 18 -68 55 0 15 -7 32 -16 37 -30 17 18 97 77 127 55 29 149 13
149 -26 0 -5 11 -9 25 -9 20 0 26 7 34 38 22 83 21 85 -39 109 -52 21 -106 26
-171 16z"/>
<path d="M1481 523 c-20 -71 -19 -73 58 -73 39 0 72 3 74 8 3 4 8 28 12 55 l7
47 -70 0 -71 0 -10 -37z"/>
<path d="M2505 548 c-2 -7 -9 -32 -14 -55 l-9 -43 73 0 73 0 11 44 c6 25 11
50 11 55 0 16 -139 14 -145 -1z"/>
<path d="M2683 430 c-26 -114 -28 -132 -15 -139 13 -8 13 -16 -2 -77 -9 -38
-19 -77 -22 -87 -5 -16 1 -18 68 -15 l73 3 19 89 c15 67 17 91 8 94 -20 6 -13
32 8 32 13 0 20 -7 20 -20 0 -11 6 -20 14 -20 11 0 10 -14 -5 -77 -10 -43 -18
-84 -19 -90 0 -9 20 -13 69 -13 l69 0 21 89 c25 105 25 101 7 101 -11 0 -13 9
-9 34 3 19 2 47 -1 61 -9 36 -65 59 -119 50 l-40 -7 7 31 c3 17 9 45 12 61 l7
30 -70 0 -69 0 -31 -130z"/>
<path d="M3456 543 c-7 -24 -56 -240 -56 -247 0 -3 7 -6 16 -6 10 0 14 -6 10
-17 -8 -25 -36 -147 -36 -155 0 -5 31 -8 69 -8 l69 0 21 85 c25 101 25 105 5
105 -10 0 -14 6 -10 18 3 9 15 58 26 107 11 50 22 100 25 113 5 21 3 22 -64
22 -58 0 -71 -3 -75 -17z"/>
<path d="M2000 545 c0 -3 -12 -58 -26 -121 -20 -86 -24 -118 -15 -123 9 -6 6
-30 -9 -95 -11 -48 -20 -89 -20 -91 0 -3 31 -5 70 -5 l69 0 10 38 c6 21 14 52
17 70 8 37 21 42 26 10 2 -19 10 -24 48 -26 40 -3 48 0 73 29 15 18 27 31 27
29 0 -3 -9 -38 -19 -78 l-19 -73 76 3 77 3 21 93 c17 75 19 92 8 92 -10 0 -13
7 -9 23 3 12 16 68 29 125 l24 102 -79 0 -78 0 -51 -75 c-28 -41 -52 -75 -55
-75 -2 0 -9 26 -15 58 -20 99 -12 92 -101 92 -43 0 -79 -2 -79 -5z"/>
<path d="M935 437 c-51 -21 -80 -45 -104 -88 -18 -31 -20 -43 -11 -49 8 -5 10
-21 5 -52 -9 -58 13 -111 54 -132 17 -9 55 -16 89 -16 74 0 136 31 174 86 30
43 46 103 31 113 -6 3 -13 23 -17 44 -4 21 -20 52 -35 69 -25 29 -35 32 -92
35 -35 1 -77 -3 -94 -10z m73 -115 c2 -12 10 -22 19 -22 20 0 11 -55 -14 -82
-31 -34 -45 -23 -41 32 2 34 -1 50 -10 52 -9 2 -9 9 4 26 19 27 38 24 42 -6z"/>
<path d="M3102 441 c-18 -5 -34 -10 -36 -12 -7 -8 -25 -94 -21 -98 3 -2 22 4
43 13 40 18 108 19 106 1 0 -5 -21 -13 -45 -17 -47 -7 -104 -26 -80 -27 11 -1
9 -7 -6 -23 -50 -55 -57 -111 -19 -147 23 -21 32 -23 147 -22 68 1 125 4 128
7 3 3 15 46 27 95 19 79 19 89 5 89 -13 0 -15 9 -13 48 3 40 0 51 -23 72 -23
22 -37 25 -103 27 -42 1 -92 -2 -110 -6z m104 -226 c-7 -27 -27 -33 -44 -12
-13 15 -5 29 23 45 23 13 30 2 21 -33z"/>
<path d="M474 394 c3 -26 6 -57 6 -70 0 -14 6 -24 14 -24 19 0 25 -21 33 -105
6 -70 5 -73 -31 -129 -20 -31 -36 -59 -36 -61 0 -3 33 -5 73 -5 l72 0 86 148
c54 91 83 150 76 154 -6 4 3 29 26 68 20 34 37 63 37 66 0 2 -31 4 -69 4 l-70
0 -33 -62 c-31 -59 -33 -61 -36 -33 -1 17 -5 45 -8 63 l-5 32 -71 0 -71 0 7
-46z"/>
<path d="M1206 422 c-20 -65 -26 -116 -15 -122 10 -7 -4 -94 -27 -172 -5 -16
3 -18 65 -18 58 0 70 3 74 18 32 115 39 165 26 173 -11 8 -10 12 5 24 23 17
42 19 51 5 3 -5 14 -10 24 -10 13 0 21 13 29 51 7 28 12 54 12 59 0 4 -54 8
-119 9 -105 1 -120 -1 -125 -17z"/>
<path d="M3594 408 c3 -18 8 -50 11 -70 3 -22 12 -38 19 -38 9 0 17 -28 25
-84 l12 -85 -41 -65 -40 -66 74 0 74 0 86 147 c51 86 83 149 77 153 -7 3 5 32
29 73 l39 67 -72 0 -72 0 -30 -55 c-32 -61 -45 -57 -45 13 l0 42 -75 0 -76 0
5 -32z"/>
<path d="M1456 398 c-20 -67 -23 -99 -10 -106 13 -7 12 -20 -4 -95 l-20 -87
72 0 72 0 19 91 c15 73 16 92 5 99 -12 7 -9 56 7 96 4 11 -8 14 -66 14 -49 0
-73 -4 -75 -12z"/>
<path d="M2465 373 c-3 -21 -9 -48 -12 -60 -4 -17 -1 -23 12 -23 11 0 15 -6
11 -17 -6 -21 -36 -152 -36 -159 0 -2 31 -4 69 -4 78 0 70 -9 96 103 18 83 19
87 1 87 -12 0 -12 8 -1 55 l12 55 -72 0 -73 0 -7 -37z"/>
</g>
</svg>
