<?xml version="1.0" standalone="no"?>
<!DOCTYPE svg PUBLIC "-//W3C//DTD SVG 20010904//EN"
 "http://www.w3.org/TR/2001/REC-SVG-20010904/DTD/svg10.dtd">
<svg version="1.0" xmlns="http://www.w3.org/2000/svg"
 width="350.000000pt" height="239.000000pt" viewBox="0 0 350.000000 239.000000"
 preserveAspectRatio="xMidYMid meet">

<g transform="translate(0.000000,239.000000) scale(0.100000,-0.100000)"
fill="#ffffff" stroke="none">
<path d="M2677 2258 c-95 -91 -119 -277 -32 -261 56 11 135 146 135 231 0 70
11 -47 83 -103 30z"/>
<path d="M2475 2262 c-39 -24 -94 -87 -111 -128 -8 -19 -14 -55 -14 -82 0
-111 74 -113 157 -4 52 216 20 21 32 20 69 -2z"/>
<path d="M2893 2238 c-67 -71 -104 -198 -68 -238 13 -15 21 -17 38 -8 67 31
115 136 196 111 262 -10 26 -48 18 -81 -16z"/>
<path d="M2246 2219 c-43 -12 -85 -56 -117 -124 -37 -76 -38 -127 -4 -161 32
-32 57 -26 111 30 41 42 84 134 84 181 0 33 -16 71 -32 77 -7 3 -26 1 -42 -3z"/>
<path d="M3077 2161 c-50 -56 -68 -95 -74 -162 -5 -49 -3 -60 11 -65 35 -13
79 110 89 136 45 184 23 87 -14 108 -73 43z"/>
<path d="M1949 2125 c-15 -8 -41 -36 -58 -61 -52 -79 -39 -195 22 -202 38 -5
71 72 70 108 1 76 24 108 24 108 0 89 -34 115 -101 79z"/>
<path d="M3225 2039 c-41 -45 -70 -103 -80 -161 -17 -92 67 -37 128 83 54 108
123 224 157 248 78 57 -24 43 -205 -32z"/>
<path d="M1673 2035 c-56 -39 -83 -139 -52 -197 16 -31 28 -38 65 -38 70 0
125 75 122 93 -5 207 -5 15 -16 31 -22 35 -20 13 -61 9 -84 -7z"/>
<path d="M1395 1946 c-54 -54 -51 -156 7 -199 56 -42 118 17 118 111 0 97 -68
127 -125 88z"/>
<path d="M3330 1871 c-61 -64 -102 -168 -72 -178 18 -7 105 85 132 136 43 86
29 116 -6 112 -16 -2 -38 -22 -54 -70z"/>
<path d="M1120 1858 c-22 -37 -25 -64 -9 -105 24 -64 87 -94 122 -58 20 20 30
31 30 56 0 34 -16 58 -77 114 -48 44 -49 44 -66 -7z"/>
<path d="M859 1803 c-15 -39 -5 -89 26 -129 68 -89 147 -19 101 90 -28 67
-107 91 -127 39z"/>
<path d="M126 1801 c-19 -29 75 -201 109 -201 38 0 -1 119 -58 178 -32 33 -42
35 -51 23z"/>
<path d="M610 1780 c-22 -42 36 -164 85 -176 35 -9 45 2 45 47 0 95 -97 191
-130 129z"/>
<path d="M367 1783 c-32 -32 56 -193 105 -193 29 0 23 66 -12 127 -35 60 -72
73 -93 66z"/>
<path d="M2461 1739 c-32 -44 -47 -110 -37 -161 7 -34 32 -68 51 -68 21 0 63
41 54 79 -9 43 19 56 92 43 105 -19 56 20 56 92 0 25 -7 31 -31 37 -22 6 -36 1
-58 -22 -14 -16 -36 -48 -46 -100 -7z"/>
<path d="M2672 1767 c-45 -53 -65 -167 -40 -222 32 -70 108 36 108 150 0 34
-5 43 -29 55 -16 9 -35 13 -39 10z"/>
<path d="M2284 1751 c-48 -29 -88 -119 -80 -177 9 -67 21 -84 60 -84 60 0 110
45 110 114 0 77 -43 154 -90 159 -8 1 -27 -4 -40 -12z"/>
<path d="M2824 1694 c-41 -85 -34 -215 11 -198 19 8 53 91 61 151 15 114 -26
161 -72 47z"/>
<path d="M2070 1717 c-13 -7 -38 -32 -54 -57 -23 -34 -30 -55 -31 -95 -1 -129
49 -167 93 -156 152 45 211 114 211 155 0 25 -3 27 -39 27 -37 0 -39 -2 -45
-38 -13 -85 -69 -122 -186 -122 l-80 0 0 -35 0 -35 84 0 c93 0 135 11 185 48
37 27 81 111 81 155 0 25 -3 27 -39 27 -37 0 -39 -2 -45 -38z"/>
<path d="M2998 1673 c-28 -32 -46 -77 -53 -134 -7 -56 6 -106 24 -94 39 24 86
51 110 64 70 38 72 63 8 117 -73 61 -49 83 -89 47z"/>
<path d="M1822 1654 c-29 -20 -62 -85 -62 -124 0 -46 26 -98 55 -112 56 -25
98 6 98 72 0 67 -34 120 -80 120 -9 0 -27 -7 -41 -16z"/>
<path d="M1567 1580 c-51 -60 -43 -149 15 -193 80 -60 158 91 95 184 -32 48
-75 51 -110 9z"/>
<path d="M3100 1568 c-36 -59 -54 -206 -25 -202 12 2 62 146 67 193 4 46 -16
75 -42 75 -4 0 -1 -30 0 -66z"/>
<path d="M1338 1550 c-23 -14 -41 -75 -34 -115 9 -49 51 -95 85 -95 62 0 91 59
71 117 -27 77 -76 118 -122 93z"/>
<path d="M1090 1500 c-51 -51 0 -190 71 -190 72 0 78 126 8 185 -37 30 -53 31
-79 5z"/>
<path d="M126 1491 c-13 -20 31 -119 72 -163 74 -80 68 26 -7 130 -30 40 -53
63 -65 63 -11 0 -24 -7 -30 -16z"/>
<path d="M845 1473 c-26 -25 -15 -96 22 -141 24 -30 37 -37 64 -37 33 0 34 1
36 42 4 56 -28 115 -70 132 -37 16 -35 16 -52 4z"/>
<path d="M364 1465 c-19 -49 51 -180 96 -180 16 0 26 6 28 19 6 28 -27 104 -67
142 -32 36 -55 43 -64 19z"/>
<path d="M595 1450 c-20 -63 80 -203 121 -169 30 25 4 119 -46 169 -26 26 -67
33 -75 0z"/>
<path d="M2392 1293 c-23 -9 -45 -66 -44 -119 0 -60 21 -107 58 -130 24 -16 71
-3 79 24 3 11 2 37 -4 57 -13 50 -58 79 -113 73 -41 -5 -41 -5 -38 23 4 41 41
68 88 66 39 -1 44 1 47 22 5 34 -29 41 -73 14z"/>
<path d="M2553 1273 c-37 -56 -15 -195 35 -222 33 -18 46 3 50 82 3 59 0 84
-12 106 -34 64 -46 70 -73 34z"/>
<path d="M2186 1268 c-55 -49 -57 -155 -5 -222 31 -40 78 -33 101 14 26 51 23
75 -11 132 -43 70 -55 77 -85 76 -14 0 -35 -9 -49 -20z"/>
<path d="M2719 1268 c-21 -38 -15 -137 10 -185 12 -24 28 -43 36 -43 19 0 29
20 51 103 16 62 16 64 -6 103 -26 44 -71 56 -91 22z"/>
<path d="M1975 1237 c-32 -32 -35 -40 -35 -92 0 -110 73 -182 129 -126 63 63
49 163 -31 216 -33 22 -35 22 -63 2z"/>
<path d="M2872 1253 c-19 -38 -22 -90 -7 -148 30 -112 60 -108 59 8 -1 76 -18
112 -54 119 -16 3 -26 -1 -28 -11z"/>
<path d="M1764 1226 c-29 -21 -46 -92 -33 -139 15 -57 54 -97 94 -97 18 0 38
10 55 27 26 26 27 30 16 69 -21 77 -90 157 -132 155 -5 0 -18 -7 -30 -15z"/>
<path d="M2993 1215 c-9 -25 2 -168 16 -193 23 -44 34 -13 28 82 -3 50 -8 99
-12 109 -10 27 -23 27 -32 2z"/>
<path d="M1532 1187 c-59 -63 4 -217 89 -217 25 0 49 42 49 85 0 116 -81 193
-138 132z"/>
<path d="M123 1185 c-14 -38 76 -185 113 -185 35 0 -4 113 -59 173 -29 31 -45
37 -54 12z"/>
<path d="M1306 1175 c-28 -28 -30 -80 -6 -131 21 -42 68 -84 97 -84 25 0 43 40
43 92 0 77 -85 163 -134 134z"/>
<path d="M367 1173 c-24 -24 23 -146 70 -183 57 -45 68 30 17 117 -31 54 -70
93 -87 87z"/>
<path d="M602 1158 c-30 -30 7 -131 64 -174 28 -22 37 -24 49 -14 8 7 15 22 15
33 0 34 -45 121 -75 144 -31 24 -33 24 -53 11z"/>
<path d="M1065 1155 c-3 -8 -7 -22 -10 -31 -17 -52 57 -164 109 -164 61 0 58
97 -6 164 -39 40 -84 55 -93 31z"/>
<path d="M824 1135 c-13 -54 59 -175 105 -175 41 0 52 44 25 108 -34 83 -115
113 -130 67z"/>
</g>
</svg>
