<?xml version="1.0" standalone="no"?>
<!DOCTYPE svg PUBLIC "-//W3C//DTD SVG 20010904//EN"
 "http://www.w3.org/TR/2001/REC-SVG-20010904/DTD/svg10.dtd">
<svg version="1.0" xmlns="http://www.w3.org/2000/svg"
 width="396.000000pt" height="184.000000pt" viewBox="0 0 396.000000 184.000000"
 preserveAspectRatio="xMidYMid meet">

<g transform="translate(0.000000,184.000000) scale(0.100000,-0.100000)"
fill="#000000" stroke="none">
<path d="M3281 1699 c-302 -27 -550 -185 -666 -424 -58 -119 -75 -187 -82
-322 l-6 -113 145 0 145 0 6 98 c13 209 112 369 280 452 103 50 173 60 445 60
l242 0 0 130 0 130 -207 -1 c-115 -1 -250 -5 -302 -10z"/>
<path d="M1746 1569 c-36 -28 -56 -70 -56 -117 0 -48 19 -59 54 -31 44 35 74
155 40 166 -6 2 -23 -6 -38 -18z"/>
<path d="M1583 1536 c-42 -42 -44 -47 -41 -93 3 -44 5 -48 30 -51 22 -3 33 5
57 38 34 47 49 113 31 135 -19 23 -29 19 -77 -29z"/>
<path d="M1856 1533 c-14 -21 -28 -57 -32 -80 -5 -36 -4 -44 11 -50 36 -13
105 108 88 153 -10 26 -42 14 -67 -23z"/>
<path d="M1433 1510 c-59 -60 -64 -150 -9 -150 44 0 102 95 94 152 -5 37 -48
36 -85 -2z"/>
<path d="M1976 1500 c-35 -43 -49 -129 -21 -132 19 -3 75 93 75 128 0 43 -19
44 -54 4z"/>
<path d="M1264 1455 c-50 -66 -28 -154 31 -127 36 16 70 93 57 130 -14 43 -54
24 -88 -3z"/>
<path d="M2078 1433 c-30 -32 -48 -72 -48 -109 0 -35 18 -27 53 22 28 40 48
26 114 30 114 -5 0 -21 -12 -35 -27z"/>
<path d="M1106 1409 c-30 -36 -33 -78 -8 -109 36 -44 92 7 92 83 0 62 -42 76
-84 26z"/>
<path d="M950 1370 c-40 -40 -17 -130 33 -130 19 0 47 49 47 82 0 29 -26 68
-46 68 -8 0 -23 -9 -34 -20z"/>
<path d="M2138 1323 c-42 -45 -63 -103 -38 -103 20 0 90 91 90 118 0 21 -25
32 -52 -15z"/>
<path d="M780 1321 c-14 -27 -13 -47 6 -82 12 -24 21 -30 41 -27 37 4 51 49
34 29 94 -18 39 -58 47 -76 15z"/>
<path d="M632 1298 c-18 -18 -14 -62 9 -92 25 -31 44 -33 59 -5 14 26 6 63
-20 89 -23 23 -31 25 -48 8z"/>
<path d="M170 1275 c0 -21 35 -88 53 -104 20 -16 31 1 21 32 -8 28 -52 87 -65
87 -5 0 -9 -7 -9 -15z"/>
<path d="M320 1253 c0 -39 35 -93 60 -93 23 0 24 7 9 47 -11 30 -47 73 -61 73
-4 0 -8 -12 -8 -27z"/>
<path d="M468 1268 c-12 -35 37 -115 65 -105 21 7 20 61 -3 90 -22 28 -55 36
-62 15z"/>
<path d="M1605 1247 c-34 -52 -28 -137 10 -137 49 0 75 151 28 158 -14 2 -27
-5 -38 -21z"/>
<path d="M1724 1244 c-21 -31 -24 -108 -6 -126 11 -11 17 -9 32 10 20 24 36
46 102 26 127 -8 23 -34 18 -52 -11z"/>
<path d="M1494 1253 c-39 -29 -56 -101 -34 -144 15 -27 34 -24 65 12 22 27 25
48 40 23 83 -2 42 -6 51 -23 54 -11 1 -25 -1 -31 -5z"/>
<path d="M1830 1218 c-26 -56 -25 -118 1 -118 22 0 52 99 42 138 -8 33 -22 27
-43 -20z"/>
<path d="M1345 1214 c-31 -33 -40 -77 -25 -115 28 -66 100 -11 100 77 0 66
-33 83 -75 38z"/>
<path d="M1920 1178 c-21 -46 -25 -85 -11 -106 10 -17 37 38 47 95 9 58 -12
54 -36 11z"/>
<path d="M1196 1178 c-18 -26 -21 -80 -6 -109 14 -26 55 -24 74 3 19 27 21 99
4 116 -19 19 -55 14 -72 -10z"/>
<path d="M1057 1152 c-24 -27 -22 -94 3 -117 47 -43 100 36 68 102 -16 34 -48
58 -71 15z"/>
<path d="M1996 1133 c-21 -42 -31 -116 -15 -111 13 4 31 48 44 106 8 40 -9 43
-29 5z"/>
<path d="M915 1126 c-40 -29 -12 -126 36 -126 40 0 53 81 19 118 -24 26 -30
27 -55 8z"/>
<path d="M762 1098 c-32 -32 12 -124 56 -116 27 5 28 68 2 101 -23 29 -39 34
-58 15z"/>
<path d="M170 1083 c0 -29 44 -98 64 -101 16 -3 18 0 12 25 -8 31 -52 93 -67
93 -5 0 -9 -8 -9 -17z"/>
<path d="M317 1084 c-17 -17 38 -124 64 -124 17 0 9 57 -13 90 -24 35 -40 45
-51 34z"/>
<path d="M609 1073 c-4 -56 33 -112 65 -100 23 9 20 59 -5 91 -23 30 -58 35
-60 9z"/>
<path d="M460 1051 c0 -29 47 -91 69 -91 18 0 13 52 -9 88 -26 42 -60 44 -60
3z"/>
<path d="M1660 955 c-14 -37 -12 -71 5 -105 21 -41 43 -38 51 7 8 41 -13 114
-33 121 -7 2 -17 -8 -23 -23z"/>
<path d="M1437 955 c-35 -35 -33 -107 4 -141 44 -40 85 40 58 113 -16 42 -38
76 -62 28z"/>
<path d="M1552 958 c-21 -21 -15 -105 9 -129 20 -20 22 -20 38 -5 11 11 16 33
15 66 -1 66 -30 67 -62 68z"/>
<path d="M1763 955 c-8 -23 2 -114 15 -127 18 -18 32 2 32 47 0 72 -30 123
-47 80z"/>
<path d="M1308 943 c-25 -28 -30 -60 -18 -98 23 -71 83 -67 95 5 5 30 2 48
-12 73 -23 38 -43 44 -65 20z"/>
<path d="M1856 945 c-16 -42 1 -135 25 -135 8 0 10 21 7 65 -4 67 -20 101 -32
70z"/>
<path d="M3500 897 c0 -68 -31 -190 -66 -258 -36 -72 -135 -169 -212 -208
-106 -53 -159 -61 -439 -61 l-253 0 0 -131 0 -131 273 5 c297 6 359 14 494 66
294 114 492 395 493 699 l0 72 -145 0 -145 0 0 -53z"/>
<path d="M1176 927 c-49 -36 0 -166 52 -138 31 17 39 73 15 113 -22 38 -40 44
-67 25z"/>
<path d="M1937 934 c-12 -13 -7 -98 8 -124 14 -24 14 -22 14 35 0 63 -10 101
-22 89z"/>
<path d="M1030 901 c-25 -48 8 -121 55 -121 38 0 48 60 18 111 -20 34 -57 39
-73 10z"/>
<path d="M170 895 c0 -36 61 -117 76 -102 11 11 -5 55 -32 86 -28 34 -44 39
-44 16z"/>
<path d="M890 889 c-22 -40 20 -119 62 -119 37 0 36 82 -2 120 -26 26 -46 25
-60 -1z"/>
<path d="M315 890 c-10 -17 38 -105 59 -109 17 -3 18 1 13 34 -3 21 -16 48
-28 61 -25 26 -35 29 -44 14z"/>
<path d="M745 880 c-13 -40 29 -110 66 -110 35 0 27 81 -12 113 -28 22 -46 22
-54 -3z"/>
<path d="M463 854 c10 -59 77 -115 77 -65 0 46 -37 101 -67 101 -12 0 -14 -8
-10 -36z"/>
<path d="M600 860 c0 -39 49 -96 75 -87 37 15 -12 117 -57 117 -13 0 -18 -8
-18 -30z"/>
<path d="M173 701 c12 -57 77 -134 77 -89 0 24 -43 99 -62 109 -20 11 -21 9
-15 -20z"/>
<path d="M1664 706 c-18 -46 48 -167 76 -140 16 15 3 77 -24 116 -25 37 -44
46 -52 24z"/>
<path d="M1770 682 c0 -39 32 -101 58 -110 20 -6 14 49 -10 98 -30 59 -48 63
-48 12z"/>
<path d="M1557 704 c-15 -16 -6 -82 16 -115 33 -49 61 -46 65 6 4 60 -53 137
-81 109z"/>
<path d="M1860 693 c1 -26 34 -95 53 -112 15 -12 17 -10 17 15 0 32 -38 105
-57 112 -7 2 -13 -4 -13 -15z"/>
<path d="M1950 687 c0 -45 49 -122 67 -104 8 8 -21 73 -47 107 l-20 25 0 -28z"/>
<path d="M315 690 c-8 -13 18 -70 45 -98 30 -32 44 -11 24 37 -24 57 -55 84
-69 61z"/>
<path d="M1437 693 c-15 -14 -6 -89 13 -121 16 -27 26 -33 48 -30 25 3 27 6
27 53 -1 53 -27 59 -88 98z"/>
<path d="M1312 678 c-19 -19 -14 -79 10 -114 27 -39 58 -50 76 -27 42 57 -37
122 -86 141z"/>
<path d="M460 656 c0 -33 41 -90 68 -94 25 -4 27 4 11 45 -13 34 -48 73 -66
73 -7 0 -13 -11 -13 -24z"/>
<path d="M1182 668 c-30 -30 3 -129 48 -143 60 -19 67 78 10 135 -23 23 -41
25 -58 8z"/>
<path d="M604 657 c-13 -34 43 -117 79 -117 17 0 19 5 14 37 -10 58 -78 117
-93 80z"/>
<path d="M1045 654 c-19 -19 -19 -38 0 -79 30 -62 95 -73 95 -15 0 67 -61 128
-95 94z"/>
<path d="M750 632 c0 -42 40 -96 73 -100 24 -3 27 0 27 26 0 42 -40 96 -73
100 -24 3 -27 0 -27 -26z"/>
<path d="M895 641 c-13 -42 45 -127 82 -119 26 5 22 67 -6 107 -26 36 -66 42
-76 12z"/>
<path d="M180 513 c0 -30 37 -113 51 -113 16 0 10 52 -12 97 -24 49 -39 55
-39 16z"/>
<path d="M320 474 c0 -39 47 -114 72 -114 23 0 -4 81 -40 123 -21 24 -32 21
-32 -9z"/>
<path d="M2040 486 c0 -22 37 -62 76 -81 67 -32 59 7 -13 59 -53 39 -63 43
-63 22z"/>
<path d="M1940 472 c0 -33 68 -111 98 -112 22 0 13 25 -24 68 -45 53 -74 70
-74 44z"/>
<path d="M1830 470 c0 -43 87 -149 111 -135 14 9 -18 76 -53 113 -32 32 -58
42 -58 22z"/>
<path d="M1726 462 c-17 -29 60 -152 95 -152 20 0 20 29 -1 72 -36 70 -78 106
-94 80z"/>
<path d="M465 450 c-14 -23 55 -130 85 -130 28 0 -8 96 -48 128 -19 14 -29 15
-37 2z"/>
<path d="M1614 445 c-24 -61 80 -196 111 -145 10 17 -16 87 -47 124 -31 38
-55 46 -64 21z"/>
<path d="M1487 420 c-11 -43 23 -117 69 -146 23 -16 26 -16 42 -1 14 15 15 23
3 64 -21 81 -100 138 -114 83z"/>
<path d="M623 393 c10 -56 83 -124 102 -93 16 26 -56 130 -91 130 -14 0 -16
-7 -11 -37z"/>
<path d="M1367 413 c-4 -3 -7 -22 -7 -42 0 -63 65 -140 105 -125 27 11 16 93
-19 139 -25 33 -62 46 -79 28z"/>
<path d="M775 400 c-19 -31 56 -140 96 -140 25 0 25 30 -1 80 -28 55 -78 87
-95 60z"/>
<path d="M1230 395 c-28 -34 9 -124 62 -151 74 -38 76 73 2 141 -31 29 -46 31
-64 10z"/>
<path d="M937 393 c-23 -22 5 -98 49 -132 37 -29 64 -28 64 4 0 67 -82 160
-113 128z"/>
<path d="M1093 393 c-35 -14 0 -115 51 -149 76 -49 75 76 0 135 -28 22 -31 23
-51 14z"/>
</g>
</svg>
